<svg width="100%" height="100%" viewBox="0 0 24 24" fill="none" xmlns="http://www.w3.org/2000/svg">
<path d="M9.5625 13.6406H20.8125C20.9156 13.6406 21 13.725 21 13.8281V15.1406C21 15.2438 20.9156 15.3281 20.8125 15.3281H9.5625C9.45937 15.3281 9.375 15.2438 9.375 15.1406V13.8281C9.375 13.725 9.45937 13.6406 9.5625 13.6406ZM9.375 8.85938C9.375 8.75625 9.45937 8.67188 9.5625 8.67188H20.8125C20.9156 8.67188 21 8.75625 21 8.85938V10.1719C21 10.275 20.9156 10.3594 20.8125 10.3594H9.5625C9.45937 10.3594 9.375 10.275 9.375 10.1719V8.85938ZM21.1875 20.25H2.8125C2.70937 20.25 2.625 20.1656 2.625 20.0625V18.75C2.625 18.6469 2.70937 18.5625 2.8125 18.5625H21.1875C21.2906 18.5625 21.375 18.6469 21.375 18.75V20.0625C21.375 20.1656 21.2906 20.25 21.1875 20.25ZM21.1875 5.4375H2.8125C2.70937 5.4375 2.625 5.35312 2.625 5.25V3.9375C2.625 3.83438 2.70937 3.75 2.8125 3.75H21.1875C21.2906 3.75 21.375 3.83438 21.375 3.9375V5.25C21.375 5.35312 21.2906 5.4375 21.1875 5.4375ZM2.70469 11.8383L6.36797 8.95312C6.50391 8.84531 6.70547 8.94141 6.70547 9.11484V14.8852C6.70547 15.0586 6.50625 15.1547 6.36797 15.0469L2.70469 12.1617C2.68006 12.1426 2.66012 12.118 2.64641 12.09C2.6327 12.062 2.62557 12.0312 2.62557 12C2.62557 11.9688 2.6327 11.938 2.64641 11.91C2.66012 11.882 2.68006 11.8574 2.70469 11.8383Z" fill="white"/>
</svg>
