<svg width="100%" height="100%" viewBox="0 0 17 20" fill="none" xmlns="http://www.w3.org/2000/svg">
<g clip-path="url(#clip0_7_1715)">
<path d="M15.9228 0.446188C15.6385 0.158852 15.2624 0.000467213 14.8631 0.000467213H4.64027V0H4.37778C3.97896 0 3.60278 0.158385 3.31857 0.445721C3.03436 0.733057 2.8777 1.11337 2.8777 1.51704V2.84439H1.50054C1.10172 2.84439 0.725547 3.00278 0.440874 3.29011C0.156663 3.57698 0 3.95729 0 4.36097V18.4834C0 18.8866 0.156663 19.2674 0.440874 19.5547C0.725085 19.8421 1.10126 20.0005 1.50054 20.0005H11.9859C12.3847 20.0005 12.7613 19.8421 13.0455 19.5547C13.3297 19.2674 13.4864 18.8871 13.4864 18.4834V17.1565H14.8636C15.2624 17.1565 15.639 16.9981 15.9232 16.7108C16.2074 16.4235 16.3641 16.0432 16.3641 15.6395V1.51704C16.3636 1.11384 16.207 0.733524 15.9228 0.446188ZM0.976485 4.36097C0.976485 4.2208 1.03148 4.08765 1.13084 3.9872C1.2302 3.88674 1.36144 3.83115 1.50054 3.83115H3.30933C3.32781 3.83348 3.34676 3.83488 3.36617 3.83488H11.9826C12.1605 3.83488 12.2821 3.91992 12.3523 3.99093C12.4517 4.09138 12.5067 4.22454 12.5067 4.3647V16.6632C12.5067 16.6818 12.5081 16.7001 12.5099 16.7183V18.4834C12.5099 18.6236 12.4549 18.7567 12.3556 18.8572C12.2562 18.9576 12.1245 19.0132 11.9859 19.0132H1.50054C1.3619 19.0132 1.2302 18.9576 1.13084 18.8572C1.03148 18.7567 0.976485 18.6236 0.976485 18.4834V4.36097ZM13.0451 3.28965C12.7609 3.00231 12.3847 2.84393 11.9854 2.84393H3.85418V1.51704C3.85418 1.37688 3.90918 1.24372 4.00853 1.14327C4.10789 1.04282 4.2396 0.987221 4.37824 0.987221H14.8677C15.005 0.988155 15.1348 1.04375 15.2333 1.14327C15.3326 1.24372 15.3876 1.37641 15.3876 1.51704V15.6395C15.3876 15.7797 15.3326 15.9128 15.2333 16.0133C15.1339 16.1137 15.0027 16.1693 14.8636 16.1693H13.4859V4.36097C13.4859 3.95729 13.3293 3.57698 13.0451 3.28965Z" fill="currentColor"/>
<path d="M4.15825 15.5082C4.50115 15.5082 4.82187 15.3746 5.06218 15.1316L6.81967 13.3548C7.17042 13.4898 7.54475 13.5613 7.92971 13.5613C8.76386 13.5613 9.54763 13.2329 10.1382 12.6362C10.7279 12.0363 11.0523 11.2439 11.0523 10.4044C11.0523 9.56105 10.7275 8.76865 10.1373 8.17155C9.54393 7.57539 8.76016 7.24741 7.92971 7.24741C7.09556 7.24741 6.31178 7.57586 5.72118 8.17249C5.1315 8.77239 4.80708 9.56478 4.80708 10.4044C4.80708 10.7945 4.87732 11.1734 5.01088 11.5275L3.25431 13.3034C3.01401 13.5464 2.88184 13.8711 2.88184 14.2173C2.88184 14.564 3.01401 14.8882 3.25431 15.1312C3.49416 15.3746 3.81534 15.5082 4.15825 15.5082ZM5.5622 12.461C5.56914 12.4694 5.57607 12.4774 5.583 12.4853C5.59686 12.5012 5.61026 12.5171 5.62413 12.5325C5.65648 12.569 5.68883 12.6035 5.72164 12.6362C5.79466 12.7101 5.86998 12.7792 5.94623 12.8423L4.37221 14.4336C4.31676 14.4897 4.2405 14.5205 4.15778 14.5205C4.07506 14.5205 3.99927 14.4897 3.94335 14.4336C3.8879 14.3775 3.8574 14.3005 3.8574 14.2168C3.8574 14.1332 3.8879 14.0566 3.94335 14L5.51784 12.4082C5.53263 12.4269 5.54788 12.4438 5.5622 12.461ZM7.92971 8.23416C8.50367 8.23416 9.04298 8.45982 9.44827 8.8691C9.85356 9.27885 10.0763 9.82362 10.0763 10.4039C10.0763 10.9842 9.8531 11.5294 9.44827 11.9392C9.04298 12.3489 8.50414 12.5741 7.92971 12.5741C7.35574 12.5741 6.81643 12.3484 6.41114 11.9392C6.00585 11.5294 5.7831 10.9846 5.7831 10.4039C5.7831 9.82315 6.00631 9.27838 6.41114 8.8691C6.81643 8.45982 7.35574 8.23416 7.92971 8.23416Z" fill="currentColor"/>
</g>
<defs>
<clipPath id="clip0_7_1715">
<rect width="16.3636" height="20" fill="white"/>
</clipPath>
</defs>
</svg>
