<svg width="100%" height="100%" viewBox="0 0 20 20" fill="none" xmlns="http://www.w3.org/2000/svg">
<path d="M19.8704 0.129567C19.7868 0.045951 19.6757 0 19.5574 0H0.442561C0.198493 0 0 0.198493 0 0.442561V19.5574C0 19.6757 0.045951 19.7868 0.129567 19.8704C0.213183 19.954 0.324294 20 0.442561 20H19.5574C19.6757 20 19.7868 19.954 19.8704 19.8704C19.954 19.7868 20 19.6757 20 19.5574V0.442561C20 0.324294 19.954 0.213183 19.8704 0.129567ZM0.885122 13.8418V0.885122H19.1149V13.8418H0.885122ZM0.885122 19.1149V14.7269H19.1149V19.1149H0.885122Z" fill="currentColor"/>
<path d="M16.9209 16.4783H13.6637C13.5431 16.1028 13.2742 15.7951 12.9149 15.626C12.7262 15.5367 12.516 15.4896 12.307 15.4896C12.0983 15.4896 11.8881 15.5367 11.6994 15.6256C11.3401 15.7951 11.0712 16.1028 10.9507 16.4783H3.0791C2.83503 16.4783 2.63654 16.6768 2.63654 16.9209C2.63654 17.165 2.83503 17.3635 3.0791 17.3635H10.9503C11.0708 17.739 11.3397 18.0467 11.6991 18.2158C11.8878 18.3051 12.0979 18.3522 12.307 18.3522C12.5156 18.3522 12.7258 18.3051 12.9145 18.2162C13.2738 18.0467 13.5428 17.739 13.6633 17.3635H16.9205C17.1646 17.3635 17.3631 17.165 17.3631 16.9209C17.3631 16.6768 17.165 16.4783 16.9209 16.4783ZM12.307 17.467C12.1631 17.467 12.0226 17.4087 11.9209 17.307C11.8192 17.2053 11.7608 17.0644 11.7608 16.9209C11.7612 16.7751 11.8181 16.638 11.9209 16.5348C12.0241 16.4316 12.1612 16.3748 12.307 16.3748C12.4508 16.3748 12.5913 16.4331 12.693 16.5348C12.7947 16.6365 12.8531 16.7774 12.8531 16.9209C12.8531 17.0644 12.7947 17.2053 12.693 17.307C12.5913 17.4087 12.4508 17.467 12.307 17.467Z" fill="currentColor"/>
<path d="M14.504 6.97928L7.58306 3.02448C7.51639 2.98643 7.44031 2.96609 7.36347 2.96609C7.2855 2.96609 7.20867 2.98681 7.14125 3.02598C7.00528 3.1047 6.92053 3.25122 6.92053 3.40866V11.3183C6.92053 11.4753 7.0049 11.6222 7.14087 11.7013C7.20829 11.7405 7.28513 11.7608 7.36272 11.7608C7.43955 11.7608 7.51564 11.7405 7.5823 11.7024L14.5032 7.74764C14.6407 7.66892 14.7262 7.52165 14.7262 7.36346C14.7262 7.20527 14.6414 7.058 14.504 6.97928ZM7.80603 10.5555V4.17137L13.3921 7.36346L7.80603 10.5555Z" fill="currentColor"/>
</svg>
